<?xml version="1.0" encoding="UTF-8" standalone="no"?>
<svg
   xmlns:osb="http://www.openswatchbook.org/uri/2009/osb"
   xmlns:dc="http://purl.org/dc/elements/1.1/"
   xmlns:cc="http://creativecommons.org/ns#"
   xmlns:rdf="http://www.w3.org/1999/02/22-rdf-syntax-ns#"
   xmlns:svg="http://www.w3.org/2000/svg"
   xmlns="http://www.w3.org/2000/svg"
   xmlns:sodipodi="http://sodipodi.sourceforge.net/DTD/sodipodi-0.dtd"
   xmlns:inkscape="http://www.inkscape.org/namespaces/inkscape"
   width="297mm"
   height="210mm"
   viewBox="0 0 297 210"
   version="1.1"
   id="svg8"
   inkscape:version="1.0.2 (e86c870879, 2021-01-15)"
   sodipodi:docname="sun.svg"
   inkscape:export-filename="C:\Users\eugen\bitmapa.png"
   inkscape:export-xdpi="96"
   inkscape:export-ydpi="96">
  <defs
     id="defs2">
    <linearGradient
       id="linearGradient871"
       osb:paint="solid">
      <stop
         style="stop-color:#064997;stop-opacity:1;"
         offset="0"
         id="stop869" />
    </linearGradient>
    <filter
       inkscape:collect="always"
       style="color-interpolation-filters:sRGB"
       id="filter865"
       x="-1.343491e-05"
       width="1.0000269"
       y="-3.3631861e-05"
       height="1.0000673">
      <feGaussianBlur
         inkscape:collect="always"
         stdDeviation="0.001567017"
         id="feGaussianBlur867" />
    </filter>
    <filter
       inkscape:collect="always"
       style="color-interpolation-filters:sRGB"
       id="filter865-3"
       x="-1.343491e-05"
       width="1.0000269"
       y="-3.3631863e-05"
       height="1.0000674">
      <feGaussianBlur
         inkscape:collect="always"
         stdDeviation="0.001567017"
         id="feGaussianBlur867-3" />
    </filter>
  </defs>
  <sodipodi:namedview
     id="base"
     pagecolor="#ffffff"
     bordercolor="#666666"
     borderopacity="1.0"
     inkscape:pageopacity="0.0"
     inkscape:pageshadow="2"
     inkscape:zoom="0.98994949"
     inkscape:cx="604.49783"
     inkscape:cy="411.454"
     inkscape:document-units="mm"
     inkscape:current-layer="layer1"
     inkscape:document-rotation="0"
     showgrid="false"
     inkscape:window-width="1920"
     inkscape:window-height="1001"
     inkscape:window-x="-9"
     inkscape:window-y="-9"
     inkscape:window-maximized="1"
     inkscape:snap-global="false" />
  <metadata
     id="metadata5">
    <rdf:RDF>
      <cc:Work
         rdf:about="">
        <dc:format>image/svg+xml</dc:format>
        <dc:type
           rdf:resource="http://purl.org/dc/dcmitype/StillImage" />
        <dc:title />
      </cc:Work>
    </rdf:RDF>
  </metadata>
  <g
     inkscape:label="Warstwa 1"
     inkscape:groupmode="layer"
     id="layer1">
    <path
       style="fill:#68ffff;fill-opacity:1;stroke:none;stroke-width:1.647;stroke-opacity:1;filter:url(#filter865-3)"
       id="path851-3"
       d="m 33.618597,53.719723 c -0.09724,-0.34388 -0.230892,-0.67948 -0.291714,-1.03161 -0.271381,-1.57118 -0.287221,-3.3446 -0.136567,-4.92702 0.106725,-1.12096 0.338304,-1.89114 0.606208,-2.97127 0.65804,-2.26555 1.87933,-4.35449 3.63447,-5.94868 0.376322,-0.34179 0.793006,-0.63635 1.189508,-0.95451 0.445601,-0.27157 1.766565,-1.11073 1.336805,-0.81474 -0.964351,0.66421 -2.249927,0.97534 -2.941688,1.92014 -0.433848,0.59253 1.376151,-0.51509 2.075966,-0.73777 2.303248,-0.73284 4.642427,-1.1649 7.020401,-1.56371 3.927824,-0.49212 7.909846,-0.87217 11.874858,-0.75023 0.81388,0.0251 1.62456,0.1137 2.43685,0.17053 3.47201,0.17775 6.72728,1.33376 9.838,2.80366 2.34359,1.07516 4.46061,2.57265 6.35834,4.30709 0.69101,0.6049 1.31773,1.45201 2.18497,1.83558 0.19893,0.088 0.44159,0.22889 0.63824,0.13591 4.9704,-2.34995 4.14393,-1.59644 6.07672,-3.73263 1.47563,-1.95982 3.13501,-3.75915 4.88426,-5.47682 1.16023,-0.94163 4.19909,-3.3478 -2.93551,1.59319 -0.33194,0.22987 0.7454,-0.31385 1.13079,-0.43434 1.39505,-0.43612 2.84904,-0.54304 4.29467,-0.67318 4.16514,-0.008 8.314276,0.50945 12.399706,1.28661 4.32476,0.97846 8.63143,2.08992 12.85556,3.44186 1.73192,0.76801 3.57949,1.35157 5.19367,2.36765 0.21666,0.13637 1.5456,1.13223 1.7523,1.28617 0.86864,0.55906 1.56002,1.77424 2.70263,1.82975 0.25575,0.0124 0.53091,-0.008 0.75749,-0.12758 1.83549,-0.96608 3.59375,-2.07222 5.39063,-3.10833 1.60316,-1.19668 2.78733,-2.82691 4.30005,-4.1185 0.28953,-0.24276 0.5873,-0.47601 0.86861,-0.72827 1.11537,-1.00018 0.66056,-0.73633 1.92346,-1.73797 1.25284,-0.99364 2.59211,-1.85324 3.96104,-2.67364 -0.96905,0.63241 -2.10625,1.06207 -2.90716,1.89725 -0.41868,0.43664 1.12893,-0.43548 1.69913,-0.63749 1.30981,-0.46405 2.47512,-0.84124 3.83032,-1.16467 1.91069,-0.45595 2.55435,-0.50159 4.53008,-0.78755 2.73852,-0.32388 5.49342,-0.46586 8.24961,-0.50427 0.95781,-0.0132 1.91738,-0.0557 2.87369,0 1.97097,0.11334 3.3444,0.43664 5.26085,0.80192 3.52063,0.86839 6.82376,2.37726 9.86367,4.33528 1.03775,0.82256 2.01209,1.74805 2.74635,2.8561 0.72837,0.76853 1.39756,1.59385 2.26669,2.21011 0.13326,0.0476 0.27302,0.20566 0.39977,0.14275 1.8249,-0.90551 3.58672,-1.93609 5.33203,-2.98686 0.18064,-0.10877 1.24585,-1.29913 1.29912,-1.35559 1.48046,-1.56972 0.39702,-0.33076 1.84939,-2.06021 1.01725,-1.10519 1.98788,-2.26102 3.13368,-3.23984 1.13739,-0.97166 2.40564,-1.77917 3.66833,-2.57279 -1.04347,0.65067 -2.21419,1.13179 -3.1304,1.95197 -0.41226,0.36906 1.03433,-0.39714 1.56575,-0.55129 0.58364,-0.16928 1.17751,-0.30469 1.77464,-0.41756 2.40231,-0.45413 4.53198,-0.51422 6.96735,-0.52766 2.9444,0.15073 5.83142,0.78414 8.60339,1.78046 2.68455,0.96488 5.2092,2.35754 7.74612,3.64445 2.46139,1.19298 4.74991,2.67618 7.00619,4.21002 1.5834,1.07638 1.93681,1.19542 3.2167,2.5095 0.35497,0.36443 0.65567,0.77803 0.98351,1.16707 0.63786,0.74303 0.94737,1.64875 1.34578,2.51831 0.0321,0.07 0.32615,0.71307 0.54988,0.60804 1.88606,-0.88549 3.66215,-1.9884 5.49325,-2.98263 0.28393,-0.17629 1.13814,-0.70117 0.8518,-0.52885 -1.15601,0.69567 -2.42342,1.23635 -3.46085,2.09894 -0.43387,0.36074 1.05587,-0.40354 1.60028,-0.55194 1.28151,-0.34941 3.39151,-0.71472 4.67013,-0.82098 0.95978,-0.0797 1.92516,-0.0633 2.88774,-0.095 5.11286,0.2122 9.99771,1.91686 14.52677,4.2263 1.03684,0.52871 2.03321,1.13334 3.04979,1.70002 3.87089,2.37546 7.24893,5.42283 10.25869,8.80812 1.28728,1.44785 1.94773,2.38111 3.08401,3.88916 2.27542,2.86202 3.058,6.10489 3.44938,9.65226 0.0933,1.55149 0.25947,3.1971 -0.35174,4.67506 -0.45186,1.09268 -0.71887,1.25404 -1.50119,2.18768 0.9793,-0.24945 -3.68496,2.55556 -2.65346,2.09942 0.98409,-0.43519 1.95027,-0.95737 2.77638,-1.64682 0.56116,-0.46834 -1.30209,0.66534 -1.9662,0.97065 -1.47735,0.6791 -2.16289,0.90744 -3.64759,1.46357 -3.44705,1.07426 -4.79235,1.18144 -8.07022,4.59639 -0.49242,0.513 -0.22828,1.40459 -0.30091,2.11198 -0.16515,1.60849 -0.22545,3.22602 -0.346,4.83847 -0.22656,2.54804 -0.1988,5.16839 -0.90646,7.650477 -0.47799,1.67658 -0.80669,2.15736 -1.59954,3.80518 -1.82311,3.39852 -4.29167,6.37291 -6.87911,9.20914 -0.60553,0.66373 -1.20486,1.33464 -1.84671,1.96329 -0.63418,0.62111 -1.31877,1.18853 -1.97813,1.78281 -3.43242,3.21371 -7.097,6.18723 -10.91761,8.92808 -1.03981,0.74594 -2.12207,1.43131 -3.1645,2.17352 -0.2844,0.20251 0.59277,-0.36899 0.88913,-0.55348 -5.35453,2.87626 -11.26574,4.57893 -17.32086,5.10781 -1.2588,0.10993 -2.52506,0.10379 -3.78759,0.15571 -4.58193,-0.0616 -9.14134,-0.57849 -13.51384,-1.99213 -1.97961,-0.64003 -3.16995,-1.22134 -5.07953,-2.05952 -2.83717,-1.44624 -5.56317,-3.13229 -7.93953,-5.26695 -1.2002,-1.07813 -1.59929,-1.60994 -2.62541,-2.79662 -1.84598,-2.23682 -3.52027,-4.60849 -5.19752,-6.97259 -0.74841,-0.88665 -1.104,-2.04544 -1.82647,-2.94701 -0.14649,-0.1828 -0.28305,-0.43924 -0.51384,-0.4794 -0.40439,-0.0704 -0.85478,-0.0124 -1.21853,0.1778 -2.03295,1.06302 -3.93304,2.36278 -5.89955,3.54415 -2.38678,1.98307 -4.22136,4.49355 -6.15507,6.89197 -0.31151,0.38637 -3.06324,3.73459 -3.4086,4.15504 -2.4719,2.96545 -4.95311,5.9994 -8.12112,8.26175 -0.59812,0.42712 -1.23741,0.79346 -1.85611,1.19017 0.81576,-0.48519 2.01363,-0.61132 2.44728,-1.4556 0.36322,-0.70718 -1.44181,0.67461 -2.18758,0.94999 -0.78664,0.29045 -1.58598,0.55538 -2.40282,0.74496 -2.09603,0.48643 -3.88542,0.59531 -6.05931,0.42214 -1.31275,-0.10459 -2.60626,-0.38002 -3.90939,-0.57005 -5.80613,-1.4715 -11.34978,-3.84251 -16.63274,-6.64334 -2.73778,-1.45145 -4.10583,-2.35013 -6.71049,-3.95528 -4.18853,-2.48973 -8.19268,-5.34535 -11.67573,-8.76964 -1.68864,-1.66016 -2.14114,-2.32336 -3.57941,-4.1134 -1.1273,-1.45785 -2.24186,-2.93603 -3.25655,-4.47609 -0.49509,-0.75139 -0.96749,-1.49262 -1.16363,-2.37397 0.46255,-2.03698 0.13503,-0.34735 -4.788386,2.60627 -0.11573,0.0694 -0.2316,0.15124 -0.30865,0.26202 -0.21465,0.30864 -0.35629,0.6627 -0.55599,0.98118 -0.68587,1.09382 -1.3369,1.94183 -2.10664,2.99765 -3.18288,4.1664 -7.0116,7.74949 -11.11779,10.98418 -1.29971,0.92469 -2.78585,2.01054 -4.13833,2.85845 -0.67584,0.42371 -2.67659,1.72006 -2.06744,1.20507 0.75289,-0.63651 1.79854,-0.8854 2.50396,-1.57411 0.42488,-0.41484 -1.06698,0.52954 -1.62935,0.7202 -0.52356,0.17751 -1.07631,0.25304 -1.61446,0.37954 -0.56431,-0.006 -1.13236,0.0487 -1.69291,-0.0164 -4.12584,-0.47956 -7.39945,-3.18262 -10.66818,-5.48315 -3.75971,-2.58498 -7.337882,-5.44499 -10.608203,-8.63026 -1.727126,-1.68222 -2.092402,-2.15582 -3.615518,-3.88162 -0.990484,-1.28175 -1.68497,-2.06737 -2.452087,-3.48919 -1.545363,-2.86428 -2.160664,-6.09251 -2.744751,-9.254167 -0.297455,-2.24092 -0.426773,-2.79154 -0.511743,-4.99124 -0.05684,-1.47148 -0.06683,-3.02376 0.575659,-4.39113 0.09811,-0.20881 0.259553,-0.3815 0.389332,-0.57224 2.080299,-1.06497 -0.729824,0.36044 -3.852043,2.36231 -0.09843,0.0631 0.23004,-0.0434 0.346295,-0.0559 0.03658,-0.004 0.08104,0.0294 0.110162,0.007 1.267269,-0.97821 2.934438,-1.61845 3.756916,-2.99193 0.387713,-0.64746 -1.481849,0.28667 -2.222772,0.43003 -4.174286,0.48604 -8.379452,0.89823 -12.586793,0.92032 -1.803365,0.01 -2.750031,-0.0801 -4.496953,-0.19447 -1.875782,-0.25746 -3.832482,-0.49662 -5.482164,-1.50899 -0.914358,-0.56116 -1.306862,-1.01743 -2.086951,-1.76017 -2.81037,-3.19519 -3.613587,-7.0812 -4.21194,-11.1638 -0.250303,-2.84663 -0.541686,-5.72773 -0.439523,-8.59124 0.0363,-1.01756 0.21712,-2.15198 0.356754,-3.1624 0.20797,-1.12075 0.394316,-2.34916 1.036349,-3.32915 0.812863,-1.24079 6.165397,-4.05791 -2.921349,1.43576 2.035045,-0.78179 4.162586,-0.32686 6.24678,-0.052 2.766264,0.33145 5.545839,0.53819 8.327972,0.6754 4.21367,0.24265 4.49045,-0.77872 8.941351,-3.35838 0.890066,-0.72734 1.076629,-1.61078 0.88846,-2.69457 -0.215884,-0.62505 -0.83371,-0.95898 -1.151414,-1.50836 -0.223422,-0.38635 -0.242271,-0.54861 -0.355333,-0.95927 0,0 -4.871987,2.67427 -4.871987,2.67427 v 0 c 0.125196,0.35094 0.267002,0.78216 0.440664,1.10691 0.267107,0.49946 0.752671,0.77777 1.001977,1.28717 0.0925,0.97661 -0.294442,1.57401 -1.123543,2.0973 1.426729,-0.81446 2.844477,-1.64483 4.280189,-2.44334 0.164364,-0.0914 -0.290759,0.24788 -0.46408,0.32091 -0.199712,0.0841 -0.421856,0.0999 -0.634462,0.14189 -0.843153,0.16656 -1.690849,0.21741 -2.550092,0.16275 -2.791277,-0.0738 -5.584748,-0.21164 -8.353758,-0.5896 -1.181629,-0.17642 -2.41473,-0.48927 -3.609829,-0.55155 -0.899848,-0.0469 -1.824189,0.0936 -2.702237,0.27038 -1.996393,1.12998 -4.468374,1.75734 -5.8919987,3.55613 -0.917019,1.15869 -1.081619,2.71635 -1.312563,4.11975 -0.127966,1.21137 -0.234664,1.94985 -0.240364,3.1891 -0.01323,2.87605 0.298977,5.75519 0.531532,8.61698 0.635109,4.17076 1.483231,8.19385 4.2304337,11.54533 0.754168,0.7571 1.244108,1.33244 2.143445,1.91664 1.710455,1.11109 3.776266,1.36999 5.753457,1.59017 1.742072,0.0769 2.896629,0.15172 4.678159,0.12036 4.166679,-0.0734 8.32086,-0.51226 12.477088,-0.77351 3.934881,-0.32721 2.087997,0.15558 7.301291,-3.65709 0.08535,-0.0624 -0.171651,-0.13034 -0.27232,-0.1627 -0.150355,-0.0483 -0.326022,-0.1447 -0.46778,-0.0751 -4.987065,2.44878 -4.035756,1.3693 -5.577991,3.29547 -0.67645,1.65624 -0.630952,3.30801 -0.491996,5.07537 0.157801,2.00702 0.315569,2.97233 0.58592,5.01033 0.603994,3.201777 1.143696,6.592017 2.736699,9.486477 0.775735,1.40949 1.559015,2.27097 2.564678,3.52594 1.996361,2.0791 4.018317,4.13568 6.193565,6.03115 2.627892,2.28992 5.426866,4.38367 8.19675,6.49516 3.23113,2.42527 6.48104,5.18382 10.59576,5.89629 0.58079,0.10054 1.17588,0.0838 1.76382,0.12565 0.5681,-0.10324 1.15264,-0.13928 1.70431,-0.30975 0.59231,-0.18301 1.15677,-0.45357 1.70467,-0.74364 2.13454,-1.13003 4.235,-2.32362 6.33677,-3.51353 2.14908,-1.21666 4.16943,-2.63848 6.14485,-4.11628 4.09407,-3.32428 7.93421,-6.96056 11.16342,-11.14809 0.79046,-1.05569 1.55103,-2.02568 2.26099,-3.13243 0.23191,-0.36152 0.49035,-0.71464 0.645836,-1.11501 0.10405,-0.26794 0.38808,-0.95477 0.11885,-0.85407 -1.763336,0.65947 -3.369676,1.68973 -4.976486,2.67076 -0.0936,0.0571 0.0526,0.21293 0.0789,0.3194 1.12153,2.58093 3.25824,4.56544 4.909616,6.7958 1.32888,1.55948 2.21874,2.68237 3.7325,4.11157 3.57737,3.37754 7.70656,6.13344 11.83818,8.77001 2.60418,1.55491 4.11786,2.51032 6.8432,3.91861 5.32664,2.75246 10.87111,5.1339 16.63222,6.81287 2.874,0.52247 4.29384,0.95186 7.16161,0.8646 5.0993,-0.15518 9.4852,-3.04517 13.68446,-5.58705 0.61968,-0.41582 1.26019,-0.80216 1.85905,-1.24745 3.10316,-2.30744 5.5253,-5.36303 7.97519,-8.31475 1.29828,-1.5948 2.07042,-2.5451 3.38032,-4.14673 1.98855,-2.43142 3.93908,-4.9385 6.45698,-6.857 -1.10694,0.5823 -2.1872,1.21841 -3.32082,1.74689 -0.30153,0.14054 0.48807,-0.50943 0.81359,-0.57806 0.1859,-0.0392 0.34785,0.16996 0.48149,0.30501 0.81756,0.82605 1.16695,2.02792 1.93612,2.8916 1.68583,2.38432 3.33317,4.81246 5.297,6.98122 1.1048,1.21097 1.49118,1.69593 2.75693,2.81226 2.43906,2.15108 5.18787,3.90268 8.11178,5.3177 0.85444,0.38729 1.69342,0.81071 2.56332,1.16189 5.20022,2.09944 10.7683,2.80202 16.3411,2.94579 1.26688,-0.0362 2.53694,-0.0119 3.80066,-0.10853 6.08306,-0.46466 12.03912,-2.11693 17.43681,-4.95906 2.44864,-1.41595 4.93511,-2.76839 7.34592,-4.24781 1.08016,-0.66286 2.09134,-1.4325 3.11904,-2.1741 3.89498,-2.81075 7.64119,-5.83587 11.17827,-9.08603 0.6536,-0.60672 1.33194,-1.18788 1.96086,-1.82021 0.62476,-0.62814 1.20764,-1.2968 1.79713,-1.95815 2.58934,-2.90499 5.06163,-5.95138 6.93142,-9.37996 0.82804,-1.68103 1.23108,-2.25975 1.68992,-3.99523 0.65582,-2.480467 0.50001,-5.104317 0.72795,-7.634547 0.0775,-1.07842 0.24024,-3.75164 0.43595,-4.80648 0.12557,-0.67693 1.2396,-1.92066 0.55457,-1.98964 -1.39041,-0.13996 -2.5966,1.04117 -3.85062,1.65783 -0.89259,0.43897 4.27776,-1.50987 2.85264,-0.87601 5.20808,-1.94096 10.49467,-4.30712 14.52856,-8.21957 0.79531,-1.05265 1.055,-1.21309 1.4792,-2.41843 0.54494,-1.54836 0.35925,-3.23479 0.19392,-4.82811 -0.49655,-3.60265 -1.33218,-6.9637 -3.74256,-9.81514 -3.97881,-4.82921 -8.33808,-9.3689 -13.67811,-12.71617 -1.00851,-0.58753 -1.99454,-1.2155 -3.02557,-1.7626 -4.52228,-2.39969 -9.45253,-4.14245 -14.58634,-4.46156 -2.91262,0.006 -2.59713,-0.0971 -5.3502,0.28178 -0.6442,0.0887 -2.94018,0.44108 -3.66066,0.797 -2.77088,1.36877 -4.45778,2.3957 -6.73341,3.76084 1.41248,-0.74274 2.81093,-1.51273 4.23738,-2.22821 0.0617,-0.031 -0.0583,0.18409 -0.12465,0.16528 -0.10969,-0.031 -0.15848,-0.16602 -0.21904,-0.2626 -0.53285,-0.84941 -0.87289,-1.81901 -1.59457,-2.54955 -0.97091,-1.05995 -1.35112,-1.56718 -2.56138,-2.45941 -0.60528,-0.44622 -1.26979,-0.80605 -1.90124,-1.21446 -2.31071,-1.49458 -4.6097,-3.01479 -7.08649,-4.22992 -0.84074,-0.42384 -4.26699,-2.16207 -5.10612,-2.54037 -3.59214,-1.6193 -7.3881,-2.81305 -11.33431,-3.10481 -0.85955,-0.0188 -1.71905,-0.0733 -2.57865,-0.0567 -2.0176,0.039 -4.13587,0.25014 -6.09854,0.74089 -3.02745,0.757 -4.15535,1.89843 -7.58946,3.78256 -2.61868,1.71781 -4.77132,3.50986 -6.75522,5.95969 -0.86779,0.97935 -1.75217,1.94765 -2.71793,2.83329 -0.20871,0.1914 -0.90845,0.66436 -0.65164,0.54504 5.23622,-2.43266 5.96692,-2.50248 4.08667,-2.23663 -0.9232,-0.39304 -1.39966,-1.35062 -2.13827,-1.98932 -0.79522,-1.17523 -1.89594,-2.1045 -3.0141,-2.96291 -3.17873,-1.9276 -6.61439,-3.41924 -10.2248,-4.32824 -1.65021,-0.30525 -3.70095,-0.73203 -5.37075,-0.83892 -0.96109,-0.0615 -1.92613,-0.006 -2.88917,3e-5 -2.73306,0.0161 -5.46326,0.098 -8.18373,0.38327 -1.89101,0.23683 -2.67194,0.28946 -4.5088,0.6902 -1.37226,0.29937 -2.49382,0.64719 -3.8193,1.09527 -0.57303,0.19372 -1.16615,0.34372 -1.70848,0.61161 -2.09094,1.03285 -4.11854,2.18929 -6.1778,3.28395 -1.3702,0.86072 -2.7099,1.74837 -3.9687,2.76932 -0.98635,0.79996 -1.08408,0.96427 -1.98411,1.75606 -0.29113,0.25609 -0.59115,0.50194 -0.88672,0.7529 -1.45154,1.36303 -2.70984,2.94799 -4.38584,4.05702 1.35902,-0.75679 2.7153,-1.5185 4.07706,-2.27037 0.19591,-0.10816 -0.36417,0.27782 -0.57937,0.3392 -0.18485,0.0527 -0.39168,0.0431 -0.57658,-0.01 -0.86498,-0.24577 -1.30197,-1.13823 -2.06772,-1.54847 -0.60556,-0.44389 -1.17517,-0.93972 -1.80969,-1.34109 -1.66286,-1.05186 -3.62413,-1.5453 -5.4,-2.35339 -2.1156,-0.63511 -4.25256,-1.17137 -6.37873,-1.76898 -2.16884,-0.6096 -4.32673,-1.2622 -6.54015,-1.70011 -4.08828,-0.78221 -8.21997,-1.3014 -12.382376,-1.47174 -0.98348,0.0662 -2.06721,0.11782 -3.04596,0.26503 -3.28093,0.49353 -6.32508,2.22512 -8.73867,4.48747 -0.78713,0.81213 -1.5752,1.62729 -2.32655,2.47295 -2.13428,2.40218 0.42278,-0.42923 -1.70371,2.05219 -0.27813,0.32456 -0.57774,0.63008 -0.86661,0.94512 -0.25742,0.21812 -1.07828,0.79634 -0.77224,0.65431 1.44447,-0.67029 2.80905,-1.50082 4.21358,-2.25126 -0.16936,0.0433 -0.33614,0.16145 -0.50809,0.12994 -0.73938,-0.13542 -1.67174,-1.24431 -2.21467,-1.68587 -1.94034,-1.76295 -4.07698,-3.32822 -6.46768,-4.42865 -0.75161,-0.35087 -1.81085,-0.86257 -2.58196,-1.14991 -2.42903,-0.90514 -4.98206,-1.51913 -7.57274,-1.67042 -0.83049,-0.0586 -1.65945,-0.14597 -2.49146,-0.17581 -3.96365,-0.14214 -7.952974,0.11258 -11.878457,0.65002 -2.375376,0.38346 -4.714806,0.79116 -7.029196,1.46466 -0.68068,0.19809 -1.386149,0.34239 -2.025256,0.64915 -4.768545,2.28886 -4.643374,2.26838 -7.474947,4.15843 -0.389014,0.33793 -0.798007,0.65413 -1.167045,1.01375 -1.744668,1.70016 -2.912415,3.86594 -3.530203,6.21126 -0.103132,0.48297 -0.228278,0.96176 -0.309399,1.44891 -0.344376,2.06809 -0.35084,4.616 -0.120293,6.70128 0.04299,0.38889 0.13838,0.77018 0.207569,1.15525 0,0 4.85485,-2.69089 4.85485,-2.69089 z"
       transform="matrix(0.3785024,0,0,0.38559873,60.331637,29.17863)" />
    <path
       style="fill:#fdffff;fill-opacity:1;stroke-width:6.28808"
       d="m 436.81251,309.75429 c -13.20733,-1.84416 -39.18384,-15.32849 -51.63003,-26.80098 -4.89471,-4.51179 -13.52481,-15.89996 -13.52481,-17.84718 0,-0.62393 -0.23366,-1.13441 -0.51924,-1.13441 -1.428,0 -7.58468,4.80019 -8.4215,6.566 -1.60796,3.39305 -10.15225,12.83494 -16.6888,18.442 -7.8159,6.70448 -12.23972,8.22304 -17.70317,6.07694 -9.26826,-3.64068 -29.31139,-20.56354 -34.16579,-28.84695 -5.08431,-8.67573 -7.08495,-24.84742 -3.56624,-28.8269 1.73496,-1.96214 1.69277,-1.98685 -2.27284,-1.33131 -7.81946,1.29262 -22.43389,1.92982 -27.3506,1.19251 -5.90813,-0.88597 -11.31628,-5.82654 -13.37158,-12.21547 -1.56037,-4.85046 -2.75089,-21.39093 -1.80957,-25.14143 l 0.68162,-2.71581 10.44862,0.69991 c 10.15393,0.68017 10.5945,0.6205 15.62176,-2.11567 4.30975,-2.34566 5.17315,-3.28462 5.17315,-5.62588 0,-1.54566 -0.45457,-3.09124 -1.01016,-3.43461 -2.60641,-1.61085 0.34784,-14.84083 4.06517,-18.20497 4.3633,-3.94872 26.49728,-6.67017 36.84601,-4.53033 7.12251,1.47275 14.21182,4.8603 19.03643,9.09637 1.8995,1.66778 4.2117,3.03233 5.13821,3.03233 3.08528,0 7.25492,-2.85122 11.18685,-7.64961 l 3.89023,-4.74752 9.16349,0.57536 c 15.26947,0.95874 34.78697,6.93498 42.11044,12.89417 2.50228,2.03614 2.80794,2.06451 5.76541,0.53515 1.71766,-0.88824 6.40905,-4.53243 10.42529,-8.09819 9.79261,-8.69419 14.28618,-10.13542 31.67455,-10.15904 12.60122,-0.0171 13.39836,0.1084 19.72256,3.10542 3.66421,1.73645 8.43445,5.0611 10.74321,7.48754 l 4.15261,4.36428 4.54694,-2.66468 c 2.50083,-1.46558 6.44862,-4.93603 8.77288,-7.71211 4.74465,-5.66695 8.26229,-7.10904 17.36277,-7.11803 7.91549,-0.008 17.15456,3.09167 27.18776,9.12087 9.43344,5.66877 13.82946,9.39743 15.18153,12.8768 0.87148,2.24265 0.98292,2.26029 4.09937,0.64871 4.60841,-2.3831 13.59577,-3.40095 20.05528,-2.27133 3.05571,0.53438 9.33121,2.78375 13.94555,4.99862 6.54787,3.14294 10.11319,5.75051 16.24031,11.87762 8.92486,8.92487 12.20942,14.7873 12.95018,23.11412 0.67899,7.63258 -1.34922,10.25956 -10.6714,13.82176 -10.10015,3.85948 -10.98022,5.13425 -12.15354,17.60411 -1.14016,12.1174 -3.45559,17.77292 -10.80727,26.39717 -5.93129,6.95801 -17.28132,17.06108 -25.00975,22.26209 -15.54724,10.46287 -38.80647,11.86343 -57.0483,3.4352 -8.42314,-3.89174 -17.64962,-12.55642 -22.9052,-21.51051 -1.79697,-3.06156 -3.7512,-5.17124 -4.8012,-5.18313 -4.15688,-0.0471 -11.47616,6.21801 -21.36648,18.28899 -6.50377,7.93777 -11.68535,13.26798 -14.24957,14.65836 -4.31356,2.3389 -10.23046,3.39934 -15.14114,2.71365 z"
       id="path863"
       transform="scale(0.26458333)" />
    <g
       id="g869"
       transform="matrix(1.0839469,0,0,0.68060586,-56.018535,19.304526)">
      <path
         style="fill:#68ffff;fill-opacity:1;stroke:none;stroke-width:1.647;stroke-opacity:1;filter:url(#filter865)"
         id="path851"
         d="m 33.618597,53.719723 c -0.09724,-0.34388 -0.230892,-0.67948 -0.291714,-1.03161 -0.271381,-1.57118 -0.287221,-3.3446 -0.136567,-4.92702 0.106725,-1.12096 0.338304,-1.89114 0.606208,-2.97127 0.65804,-2.26555 1.87933,-4.35449 3.63447,-5.94868 0.376322,-0.34179 0.793006,-0.63635 1.189508,-0.95451 0.445601,-0.27157 1.766565,-1.11073 1.336805,-0.81474 -0.964351,0.66421 -2.249927,0.97534 -2.941688,1.92014 -0.433848,0.59253 1.376151,-0.51509 2.075966,-0.73777 2.303248,-0.73284 4.642427,-1.1649 7.020401,-1.56371 3.927824,-0.49212 7.909846,-0.87217 11.874858,-0.75023 0.81388,0.0251 1.62456,0.1137 2.43685,0.17053 3.47201,0.17775 6.72728,1.33376 9.838,2.80366 2.34359,1.07516 4.46061,2.57265 6.35834,4.30709 0.69101,0.6049 1.31773,1.45201 2.18497,1.83558 0.19893,0.088 0.44159,0.22889 0.63824,0.13591 4.9704,-2.34995 4.14393,-1.59644 6.07672,-3.73263 1.47563,-1.95982 3.13501,-3.75915 4.88426,-5.47682 1.16023,-0.94163 4.19909,-3.3478 -2.93551,1.59319 -0.33194,0.22987 0.7454,-0.31385 1.13079,-0.43434 1.39505,-0.43612 2.84904,-0.54304 4.29467,-0.67318 4.16514,-0.008 8.314276,0.50945 12.399706,1.28661 4.32476,0.97846 8.63143,2.08992 12.85556,3.44186 1.73192,0.76801 3.57949,1.35157 5.19367,2.36765 0.21666,0.13637 1.5456,1.13223 1.7523,1.28617 0.86864,0.55906 1.56002,1.77424 2.70263,1.82975 0.25575,0.0124 0.53091,-0.008 0.75749,-0.12758 1.83549,-0.96608 3.59375,-2.07222 5.39063,-3.10833 1.60316,-1.19668 2.78733,-2.82691 4.30005,-4.1185 0.28953,-0.24276 0.5873,-0.47601 0.86861,-0.72827 1.11537,-1.00018 0.66056,-0.73633 1.92346,-1.73797 1.25284,-0.99364 2.59211,-1.85324 3.96104,-2.67364 -0.96905,0.63241 -2.10625,1.06207 -2.90716,1.89725 -0.41868,0.43664 1.12893,-0.43548 1.69913,-0.63749 1.30981,-0.46405 2.47512,-0.84124 3.83032,-1.16467 1.91069,-0.45595 2.55435,-0.50159 4.53008,-0.78755 2.73852,-0.32388 5.49342,-0.46586 8.24961,-0.50427 0.95781,-0.0132 1.91738,-0.0557 2.87369,0 1.97097,0.11334 3.3444,0.43664 5.26085,0.80192 3.52063,0.86839 6.82376,2.37726 9.86367,4.33528 1.03775,0.82256 2.01209,1.74805 2.74635,2.8561 0.72837,0.76853 1.39756,1.59385 2.26669,2.21011 0.13326,0.0476 0.27302,0.20566 0.39977,0.14275 1.8249,-0.90551 3.58672,-1.93609 5.33203,-2.98686 0.18064,-0.10877 1.24585,-1.29913 1.29912,-1.35559 1.48046,-1.56972 0.39702,-0.33076 1.84939,-2.06021 1.01725,-1.10519 1.98788,-2.26102 3.13368,-3.23984 1.13739,-0.97166 2.40564,-1.77917 3.66833,-2.57279 -1.04347,0.65067 -2.21419,1.13179 -3.1304,1.95197 -0.41226,0.36906 1.03433,-0.39714 1.56575,-0.55129 0.58364,-0.16928 1.17751,-0.30469 1.77464,-0.41756 2.40231,-0.45413 4.53198,-0.51422 6.96735,-0.52766 2.9444,0.15073 5.83142,0.78414 8.60339,1.78046 2.68455,0.96488 5.2092,2.35754 7.74612,3.64445 2.46139,1.19298 4.74991,2.67618 7.00619,4.21002 1.5834,1.07638 1.93681,1.19542 3.2167,2.5095 0.35497,0.36443 0.65567,0.77803 0.98351,1.16707 0.63786,0.74303 0.94737,1.64875 1.34578,2.51831 0.0321,0.07 0.32615,0.71307 0.54988,0.60804 1.88606,-0.88549 3.66215,-1.9884 5.49325,-2.98263 0.28393,-0.17629 1.13814,-0.70117 0.8518,-0.52885 -1.15601,0.69567 -2.42342,1.23635 -3.46085,2.09894 -0.43387,0.36074 1.05587,-0.40354 1.60028,-0.55194 1.28151,-0.34941 3.39151,-0.71472 4.67013,-0.82098 0.95978,-0.0797 1.92516,-0.0633 2.88774,-0.095 5.11286,0.2122 9.99771,1.91686 14.52677,4.2263 1.03684,0.52871 2.03321,1.13334 3.04979,1.70002 3.87089,2.37546 7.24893,5.42283 10.25869,8.80812 1.28728,1.44785 1.94773,2.38111 3.08401,3.88916 2.27542,2.86202 3.058,6.10489 3.44938,9.65226 0.0933,1.55149 0.25947,3.1971 -0.35174,4.67506 -0.45186,1.09268 -0.71887,1.25404 -1.50119,2.18768 0.9793,-0.24945 -3.68496,2.55556 -2.65346,2.09942 0.98409,-0.43519 1.95027,-0.95737 2.77638,-1.64682 0.56116,-0.46834 -1.30209,0.66534 -1.9662,0.97065 -1.47735,0.6791 -2.16289,0.90744 -3.64759,1.46357 -3.44705,1.07426 -4.79235,1.18144 -8.07022,4.59639 -0.49242,0.513 -0.22828,1.40459 -0.30091,2.11198 -0.16515,1.60849 -0.22545,3.22602 -0.346,4.83847 -0.22656,2.54804 -0.1988,5.16839 -0.90646,7.650477 -0.47799,1.67658 -0.80669,2.15736 -1.59954,3.80518 -1.82311,3.39852 -4.29167,6.37291 -6.87911,9.20914 -0.60553,0.66373 -1.20486,1.33464 -1.84671,1.96329 -0.63418,0.62111 -1.31877,1.18853 -1.97813,1.78281 -3.43242,3.21371 -7.097,6.18723 -10.91761,8.92808 -1.03981,0.74594 -2.12207,1.43131 -3.1645,2.17352 -0.2844,0.20251 0.59277,-0.36899 0.88913,-0.55348 -5.35453,2.87626 -11.26574,4.57893 -17.32086,5.10781 -1.2588,0.10993 -2.52506,0.10379 -3.78759,0.15571 -4.58193,-0.0616 -9.14134,-0.57849 -13.51384,-1.99213 -1.97961,-0.64003 -3.16995,-1.22134 -5.07953,-2.05952 -2.83717,-1.44624 -5.56317,-3.13229 -7.93953,-5.26695 -1.2002,-1.07813 -1.59929,-1.60994 -2.62541,-2.79662 -1.84598,-2.23682 -3.52027,-4.60849 -5.19752,-6.97259 -0.74841,-0.88665 -1.104,-2.04544 -1.82647,-2.94701 -0.14649,-0.1828 -0.28305,-0.43924 -0.51384,-0.4794 -0.40439,-0.0704 -0.85478,-0.0124 -1.21853,0.1778 -2.03295,1.06302 -3.93304,2.36278 -5.89955,3.54415 -2.38678,1.98307 -4.22136,4.49355 -6.15507,6.89197 -0.31151,0.38637 -3.06324,3.73459 -3.4086,4.15504 -2.4719,2.96545 -4.95311,5.9994 -8.12112,8.26175 -0.59812,0.42712 -1.23741,0.79346 -1.85611,1.19017 0.81576,-0.48519 2.01363,-0.61132 2.44728,-1.4556 0.36322,-0.70718 -1.44181,0.67461 -2.18758,0.94999 -0.78664,0.29045 -1.58598,0.55538 -2.40282,0.74496 -2.09603,0.48643 -3.88542,0.59531 -6.05931,0.42214 -1.31275,-0.10459 -2.60626,-0.38002 -3.90939,-0.57005 -5.80613,-1.4715 -11.34978,-3.84251 -16.63274,-6.64334 -2.73778,-1.45145 -4.10583,-2.35013 -6.71049,-3.95528 -4.18853,-2.48973 -8.19268,-5.34535 -11.67573,-8.76964 -1.68864,-1.66016 -2.14114,-2.32336 -3.57941,-4.1134 -1.1273,-1.45785 -2.24186,-2.93603 -3.25655,-4.47609 -0.49509,-0.75139 -0.96749,-1.49262 -1.16363,-2.37397 0.46255,-2.03698 0.13503,-0.34735 -4.788386,2.60627 -0.11573,0.0694 -0.2316,0.15124 -0.30865,0.26202 -0.21465,0.30864 -0.35629,0.6627 -0.55599,0.98118 -0.68587,1.09382 -1.3369,1.94183 -2.10664,2.99765 -3.18288,4.1664 -7.0116,7.74949 -11.11779,10.98418 -1.29971,0.92469 -2.78585,2.01054 -4.13833,2.85845 -0.67584,0.42371 -2.67659,1.72006 -2.06744,1.20507 0.75289,-0.63651 1.79854,-0.8854 2.50396,-1.57411 0.42488,-0.41484 -1.06698,0.52954 -1.62935,0.7202 -0.52356,0.17751 -1.07631,0.25304 -1.61446,0.37954 -0.56431,-0.006 -1.13236,0.0487 -1.69291,-0.0164 -4.12584,-0.47956 -7.39945,-3.18262 -10.66818,-5.48315 -3.75971,-2.58498 -7.337882,-5.44499 -10.608203,-8.63026 -1.727126,-1.68222 -2.092402,-2.15582 -3.615518,-3.88162 -0.990484,-1.28175 -1.68497,-2.06737 -2.452087,-3.48919 -1.545363,-2.86428 -2.160664,-6.09251 -2.744751,-9.254167 -0.297455,-2.24092 -0.426773,-2.79154 -0.511743,-4.99124 -0.05684,-1.47148 -0.06683,-3.02376 0.575659,-4.39113 0.09811,-0.20881 0.259553,-0.3815 0.389332,-0.57224 2.080299,-1.06497 -0.729824,0.36044 -3.852043,2.36231 -0.09843,0.0631 0.23004,-0.0434 0.346295,-0.0559 0.03658,-0.004 0.08104,0.0294 0.110162,0.007 1.267269,-0.97821 2.934438,-1.61845 3.756916,-2.99193 0.387713,-0.64746 -1.481849,0.28667 -2.222772,0.43003 -4.174286,0.48604 -8.379452,0.89823 -12.586793,0.92032 -1.803365,0.01 -2.750031,-0.0801 -4.496953,-0.19447 -1.875782,-0.25746 -3.832482,-0.49662 -5.482164,-1.50899 -0.914358,-0.56116 -1.306862,-1.01743 -2.086951,-1.76017 -2.81037,-3.19519 -3.613587,-7.0812 -4.21194,-11.1638 -0.250303,-2.84663 -0.541686,-5.72773 -0.439523,-8.59124 0.0363,-1.01756 0.21712,-2.15198 0.356754,-3.1624 0.20797,-1.12075 0.394316,-2.34916 1.036349,-3.32915 0.812863,-1.24079 6.165397,-4.05791 -2.921349,1.43576 2.035045,-0.78179 4.162586,-0.32686 6.24678,-0.052 2.766264,0.33145 5.545839,0.53819 8.327972,0.6754 4.21367,0.24265 4.49045,-0.77872 8.941351,-3.35838 0.890066,-0.72734 1.076629,-1.61078 0.88846,-2.69457 -0.215884,-0.62505 -0.83371,-0.95898 -1.151414,-1.50836 -0.223422,-0.38635 -0.242271,-0.54861 -0.355333,-0.95927 0,0 -4.871987,2.67427 -4.871987,2.67427 v 0 c 0.125196,0.35094 0.267002,0.78216 0.440664,1.10691 0.267107,0.49946 0.752671,0.77777 1.001977,1.28717 0.0925,0.97661 -0.294442,1.57401 -1.123543,2.0973 1.426729,-0.81446 2.844477,-1.64483 4.280189,-2.44334 0.164364,-0.0914 -0.290759,0.24788 -0.46408,0.32091 -0.199712,0.0841 -0.421856,0.0999 -0.634462,0.14189 -0.843153,0.16656 -1.690849,0.21741 -2.550092,0.16275 -2.791277,-0.0738 -5.584748,-0.21164 -8.353758,-0.5896 -1.181629,-0.17642 -2.41473,-0.48927 -3.609829,-0.55155 -0.899848,-0.0469 -1.824189,0.0936 -2.702237,0.27038 -1.996393,1.12998 -4.468374,1.75734 -5.8919987,3.55613 -0.917019,1.15869 -1.081619,2.71635 -1.312563,4.11975 -0.127966,1.21137 -0.234664,1.94985 -0.240364,3.1891 -0.01323,2.87605 0.298977,5.75519 0.531532,8.61698 0.635109,4.17076 1.483231,8.19385 4.2304337,11.54533 0.754168,0.7571 1.244108,1.33244 2.143445,1.91664 1.710455,1.11109 3.776266,1.36999 5.753457,1.59017 1.742072,0.0769 2.896629,0.15172 4.678159,0.12036 4.166679,-0.0734 8.32086,-0.51226 12.477088,-0.77351 3.934881,-0.32721 2.087997,0.15558 7.301291,-3.65709 0.08535,-0.0624 -0.171651,-0.13034 -0.27232,-0.1627 -0.150355,-0.0483 -0.326022,-0.1447 -0.46778,-0.0751 -4.987065,2.44878 -4.035756,1.3693 -5.577991,3.29547 -0.67645,1.65624 -0.630952,3.30801 -0.491996,5.07537 0.157801,2.00702 0.315569,2.97233 0.58592,5.01033 0.603994,3.201777 1.143696,6.592017 2.736699,9.486477 0.775735,1.40949 1.559015,2.27097 2.564678,3.52594 1.996361,2.0791 4.018317,4.13568 6.193565,6.03115 2.627892,2.28992 5.426866,4.38367 8.19675,6.49516 3.23113,2.42527 6.48104,5.18382 10.59576,5.89629 0.58079,0.10054 1.17588,0.0838 1.76382,0.12565 0.5681,-0.10324 1.15264,-0.13928 1.70431,-0.30975 0.59231,-0.18301 1.15677,-0.45357 1.70467,-0.74364 2.13454,-1.13003 4.235,-2.32362 6.33677,-3.51353 2.14908,-1.21666 4.16943,-2.63848 6.14485,-4.11628 4.09407,-3.32428 7.93421,-6.96056 11.16342,-11.14809 0.79046,-1.05569 1.55103,-2.02568 2.26099,-3.13243 0.23191,-0.36152 0.49035,-0.71464 0.645836,-1.11501 0.10405,-0.26794 0.38808,-0.95477 0.11885,-0.85407 -1.763336,0.65947 -3.369676,1.68973 -4.976486,2.67076 -0.0936,0.0571 0.0526,0.21293 0.0789,0.3194 1.12153,2.58093 3.25824,4.56544 4.909616,6.7958 1.32888,1.55948 2.21874,2.68237 3.7325,4.11157 3.57737,3.37754 7.70656,6.13344 11.83818,8.77001 2.60418,1.55491 4.11786,2.51032 6.8432,3.91861 5.32664,2.75246 10.87111,5.1339 16.63222,6.81287 2.874,0.52247 4.29384,0.95186 7.16161,0.8646 5.0993,-0.15518 9.4852,-3.04517 13.68446,-5.58705 0.61968,-0.41582 1.26019,-0.80216 1.85905,-1.24745 3.10316,-2.30744 5.5253,-5.36303 7.97519,-8.31475 1.29828,-1.5948 2.07042,-2.5451 3.38032,-4.14673 1.98855,-2.43142 3.93908,-4.9385 6.45698,-6.857 -1.10694,0.5823 -2.1872,1.21841 -3.32082,1.74689 -0.30153,0.14054 0.48807,-0.50943 0.81359,-0.57806 0.1859,-0.0392 0.34785,0.16996 0.48149,0.30501 0.81756,0.82605 1.16695,2.02792 1.93612,2.8916 1.68583,2.38432 3.33317,4.81246 5.297,6.98122 1.1048,1.21097 1.49118,1.69593 2.75693,2.81226 2.43906,2.15108 5.18787,3.90268 8.11178,5.3177 0.85444,0.38729 1.69342,0.81071 2.56332,1.16189 5.20022,2.09944 10.7683,2.80202 16.3411,2.94579 1.26688,-0.0362 2.53694,-0.0119 3.80066,-0.10853 6.08306,-0.46466 12.03912,-2.11693 17.43681,-4.95906 2.44864,-1.41595 4.93511,-2.76839 7.34592,-4.24781 1.08016,-0.66286 2.09134,-1.4325 3.11904,-2.1741 3.89498,-2.81075 7.64119,-5.83587 11.17827,-9.08603 0.6536,-0.60672 1.33194,-1.18788 1.96086,-1.82021 0.62476,-0.62814 1.20764,-1.2968 1.79713,-1.95815 2.58934,-2.90499 5.06163,-5.95138 6.93142,-9.37996 0.82804,-1.68103 1.23108,-2.25975 1.68992,-3.99523 0.65582,-2.480467 0.50001,-5.104317 0.72795,-7.634547 0.0775,-1.07842 0.24024,-3.75164 0.43595,-4.80648 0.12557,-0.67693 1.2396,-1.92066 0.55457,-1.98964 -1.39041,-0.13996 -2.5966,1.04117 -3.85062,1.65783 -0.89259,0.43897 4.27776,-1.50987 2.85264,-0.87601 5.20808,-1.94096 10.49467,-4.30712 14.52856,-8.21957 0.79531,-1.05265 1.055,-1.21309 1.4792,-2.41843 0.54494,-1.54836 0.35925,-3.23479 0.19392,-4.82811 -0.49655,-3.60265 -1.33218,-6.9637 -3.74256,-9.81514 -3.97881,-4.82921 -8.33808,-9.3689 -13.67811,-12.71617 -1.00851,-0.58753 -1.99454,-1.2155 -3.02557,-1.7626 -4.52228,-2.39969 -9.45253,-4.14245 -14.58634,-4.46156 -2.91262,0.006 -2.59713,-0.0971 -5.3502,0.28178 -0.6442,0.0887 -2.94018,0.44108 -3.66066,0.797 -2.77088,1.36877 -4.45778,2.3957 -6.73341,3.76084 1.41248,-0.74274 2.81093,-1.51273 4.23738,-2.22821 0.0617,-0.031 -0.0583,0.18409 -0.12465,0.16528 -0.10969,-0.031 -0.15848,-0.16602 -0.21904,-0.2626 -0.53285,-0.84941 -0.87289,-1.81901 -1.59457,-2.54955 -0.97091,-1.05995 -1.35112,-1.56718 -2.56138,-2.45941 -0.60528,-0.44622 -1.26979,-0.80605 -1.90124,-1.21446 -2.31071,-1.49458 -4.6097,-3.01479 -7.08649,-4.22992 -0.84074,-0.42384 -4.26699,-2.16207 -5.10612,-2.54037 -3.59214,-1.6193 -7.3881,-2.81305 -11.33431,-3.10481 -0.85955,-0.0188 -1.71905,-0.0733 -2.57865,-0.0567 -2.0176,0.039 -4.13587,0.25014 -6.09854,0.74089 -3.02745,0.757 -4.15535,1.89843 -7.58946,3.78256 -2.61868,1.71781 -4.77132,3.50986 -6.75522,5.95969 -0.86779,0.97935 -1.75217,1.94765 -2.71793,2.83329 -0.20871,0.1914 -0.90845,0.66436 -0.65164,0.54504 5.23622,-2.43266 5.96692,-2.50248 4.08667,-2.23663 -0.9232,-0.39304 -1.39966,-1.35062 -2.13827,-1.98932 -0.79522,-1.17523 -1.89594,-2.1045 -3.0141,-2.96291 -3.17873,-1.9276 -6.61439,-3.41924 -10.2248,-4.32824 -1.65021,-0.30525 -3.70095,-0.73203 -5.37075,-0.83892 -0.96109,-0.0615 -1.92613,-0.006 -2.88917,3e-5 -2.73306,0.0161 -5.46326,0.098 -8.18373,0.38327 -1.89101,0.23683 -2.67194,0.28946 -4.5088,0.6902 -1.37226,0.29937 -2.49382,0.64719 -3.8193,1.09527 -0.57303,0.19372 -1.16615,0.34372 -1.70848,0.61161 -2.09094,1.03285 -4.11854,2.18929 -6.1778,3.28395 -1.3702,0.86072 -2.7099,1.74837 -3.9687,2.76932 -0.98635,0.79996 -1.08408,0.96427 -1.98411,1.75606 -0.29113,0.25609 -0.59115,0.50194 -0.88672,0.7529 -1.45154,1.36303 -2.70984,2.94799 -4.38584,4.05702 1.35902,-0.75679 2.7153,-1.5185 4.07706,-2.27037 0.19591,-0.10816 -0.36417,0.27782 -0.57937,0.3392 -0.18485,0.0527 -0.39168,0.0431 -0.57658,-0.01 -0.86498,-0.24577 -1.30197,-1.13823 -2.06772,-1.54847 -0.60556,-0.44389 -1.17517,-0.93972 -1.80969,-1.34109 -1.66286,-1.05186 -3.62413,-1.5453 -5.4,-2.35339 -2.1156,-0.63511 -4.25256,-1.17137 -6.37873,-1.76898 -2.16884,-0.6096 -4.32673,-1.2622 -6.54015,-1.70011 -4.08828,-0.78221 -8.21997,-1.3014 -12.382376,-1.47174 -0.98348,0.0662 -2.06721,0.11782 -3.04596,0.26503 -3.28093,0.49353 -6.32508,2.22512 -8.73867,4.48747 -0.78713,0.81213 -1.5752,1.62729 -2.32655,2.47295 -2.13428,2.40218 0.42278,-0.42923 -1.70371,2.05219 -0.27813,0.32456 -0.57774,0.63008 -0.86661,0.94512 -0.25742,0.21812 -1.07828,0.79634 -0.77224,0.65431 1.44447,-0.67029 2.80905,-1.50082 4.21358,-2.25126 -0.16936,0.0433 -0.33614,0.16145 -0.50809,0.12994 -0.73938,-0.13542 -1.67174,-1.24431 -2.21467,-1.68587 -1.94034,-1.76295 -4.07698,-3.32822 -6.46768,-4.42865 -0.75161,-0.35087 -1.81085,-0.86257 -2.58196,-1.14991 -2.42903,-0.90514 -4.98206,-1.51913 -7.57274,-1.67042 -0.83049,-0.0586 -1.65945,-0.14597 -2.49146,-0.17581 -3.96365,-0.14214 -7.952974,0.11258 -11.878457,0.65002 -2.375376,0.38346 -4.714806,0.79116 -7.029196,1.46466 -0.68068,0.19809 -1.386149,0.34239 -2.025256,0.64915 -4.768545,2.28886 -4.643374,2.26838 -7.474947,4.15843 -0.389014,0.33793 -0.798007,0.65413 -1.167045,1.01375 -1.744668,1.70016 -2.912415,3.86594 -3.530203,6.21126 -0.103132,0.48297 -0.228278,0.96176 -0.309399,1.44891 -0.344376,2.06809 -0.35084,4.616 -0.120293,6.70128 0.04299,0.38889 0.13838,0.77018 0.207569,1.15525 0,0 4.85485,-2.69089 4.85485,-2.69089 z"
         transform="matrix(0.37893863,0,0,0.38604314,132.6217,134.53515)" />
      <path
         style="fill:#fdffff;fill-opacity:1;stroke-width:1.66564"
         d="m 187.12757,187.53223 c -3.72294,-0.67671 -10.3272,-4.1419 -13.54241,-7.10558 -1.29655,-1.19512 -3.58257,-4.21171 -3.58257,-4.72752 0,-0.87922 -1.67643,0.58967 -3.74245,3.27913 -1.52415,1.98408 -4.79616,4.63637 -5.99777,4.86178 -1.21778,0.22847 -2.68819,-0.45064 -5.3779,-2.48376 -2.5717,-1.94391 -4.95423,-4.389 -5.68647,-5.83577 -1.14546,-2.26322 -1.51355,-6.20875 -0.66849,-7.16556 0.45814,-0.51874 0.44863,-0.52637 -0.44113,-0.35427 -1.66609,0.32226 -6.07345,0.51791 -7.35115,0.3263 -1.62987,-0.24441 -2.92405,-1.36532 -3.50696,-3.03742 -0.491,-1.40848 -0.84913,-5.7499 -0.56704,-6.87388 l 0.18249,-0.72709 2.75232,0.18759 c 2.46268,0.16785 2.86466,0.1303 3.81953,-0.35683 1.6289,-0.831 1.84711,-1.20105 1.43844,-2.43934 -0.72633,-2.20079 0.36092,-4.95245 2.19587,-5.55744 1.6827,-0.55477 5.59376,-0.95517 7.55697,-0.77367 2.15332,0.1991 4.57815,1.21273 6.10223,2.55089 1.34259,1.17882 2.23247,0.9696 4.03909,-0.94968 1.33161,-1.41466 1.3854,-1.44165 2.8738,-1.44165 3.43573,0 9.24655,1.56847 11.46536,3.09474 l 1.37542,0.94613 0.99011,-0.6015 c 0.54455,-0.33084 1.77276,-1.30416 2.72935,-2.16297 2.31449,-2.07789 3.56396,-2.45604 8.16111,-2.46995 3.36655,-0.0102 3.53652,0.0169 5.28071,0.84318 1.04159,0.49341 2.2389,1.32668 2.83697,1.97436 l 1.03477,1.12065 1.20316,-0.7051 c 0.66175,-0.38782 1.70613,-1.30159 2.32085,-2.03061 0.7577,-0.89859 1.43861,-1.41461 2.11415,-1.60222 1.55145,-0.43089 3.85339,-0.33035 5.73362,0.25039 2.29765,0.70967 5.9663,2.92484 7.38167,4.45711 1.08746,1.17727 1.18647,1.22531 1.87305,0.90866 1.18011,-0.54424 3.55665,-0.77418 5.13993,-0.4973 0.80942,0.14156 2.48587,0.74423 3.72544,1.33929 1.76139,0.84557 2.69949,1.5284 4.294,3.12562 2.32483,2.32873 3.20936,3.92171 3.41073,6.14238 0.12329,1.35954 0.0629,1.63824 -0.49399,2.27805 -0.34895,0.40094 -1.47124,1.06605 -2.49401,1.478 -2.47728,0.99781 -2.75468,1.4306 -3.06332,4.77956 -0.28155,3.055 -0.79023,4.27006 -2.82704,6.75308 -1.40964,1.71847 -4.55237,4.51173 -6.65914,5.91868 -4.11596,2.74871 -10.49022,3.13565 -15.11825,0.91772 -2.33321,-1.11815 -3.73921,-2.38082 -5.58796,-5.01826 -0.83748,-1.19474 -1.64265,-2.07092 -1.89959,-2.06709 -0.88433,0.0131 -2.98676,1.89407 -5.58276,4.99452 -1.58863,1.89735 -3.0689,3.39164 -3.7047,3.73979 -1.09897,0.60177 -2.97774,0.9274 -4.13604,0.71686 z"
         id="path865" />
    </g>
  </g>
</svg>
